<?xml version="1.0" encoding="UTF-8"?>
<!-- The Best Svg Icon site in the world: iconSvg.co, Visit us! https://iconsvg.co -->
<svg fill="#000000" width="800px" height="800px" version="1.1" viewBox="144 144 512 512" xmlns="http://www.w3.org/2000/svg">
 <path d="m400 604.67c-1.7852-0.007813-3.4688-0.82031-4.5859-2.2109-1.1133-1.3906-1.543-3.2109-1.1641-4.9531l10.078-45.266c4.1133-18.977 0.48828-38.809-10.078-55.102-8.2656-12.695-12.973-27.379-13.625-42.516-0.64844-15.137 2.7773-30.168 9.9258-43.527h-9.8398c-4.1055-0.03125-7.8984-2.1953-10.02-5.7109-2.1172-3.5156-2.2578-7.8828-0.37109-11.527l10.234-18.973-49.91-49.91-3.4648 3.6211-54.16 54.004 8.582 15.742c1.6484 3.3672 1.4531 7.3438-0.50781 10.535-1.9648 3.1953-5.4258 5.1602-9.1719 5.2109h-12.988c-6.2539 10.172-9.5273 21.898-9.4414 33.84 0.082031 11.941 3.5156 23.617 9.9102 33.703 10.812 16.574 14.527 36.789 10.312 56.125l-8.7383 39.359h0.003907c-0.21875 1.6406-1.1094 3.1133-2.4648 4.0625-1.3516 0.94922-3.0391 1.2852-4.6523 0.93359-1.6172-0.35547-3.0078-1.3672-3.8398-2.7969-0.83203-1.4258-1.0273-3.1367-0.53906-4.7148l8.6602-39.359v-0.003907c3.6602-16.254 0.5625-33.301-8.582-47.23-7.1055-10.918-11.199-23.52-11.863-36.527-0.66406-13.012 2.125-25.965 8.0859-37.547h-7.2422c-3.7461-0.050782-7.207-2.0195-9.1719-5.2109-1.9609-3.1914-2.1562-7.168-0.51172-10.535l8.582-15.742-54.004-54.16c-20.859-20.859-29.52-45.105-23.617-66.676 12.598-42.668 63.766-44.32 95.41-13.305 10.48-10.059 23.48-17.102 37.629-20.387 19.996-43.141 72.895-40.465 107.14-7.1641 34.164-33.141 87.223-35.977 107.14 7.1641 14.105 3.3359 27.066 10.375 37.551 20.387 66.52-59.434 136.27 15.742 72.027 79.98l-54.16 54.004 8.582 15.742c1.6445 3.3672 1.4531 7.3438-0.51172 10.535s-5.4219 5.1562-9.1719 5.207h-12.988c-6.2539 10.176-9.5234 21.898-9.4414 33.84 0.082031 11.941 3.5195 23.617 9.9141 33.703 10.828 16.57 14.516 36.805 10.234 56.129l-8.6602 39.359c-0.90625 2.9297-3.9062 4.6758-6.9023 4.0195-3-0.65625-4.9922-3.4961-4.5898-6.5391l8.6602-39.359h-0.003907c3.625-16.258 0.53125-33.289-8.5781-47.234-7.1094-10.914-11.203-23.52-11.867-36.527-0.66406-13.012 2.1289-25.965 8.0898-37.547h-7.2422c-3.75-0.050782-7.2109-2.0156-9.1719-5.2109-1.9648-3.1914-2.1562-7.1641-0.51172-10.531l8.582-15.742-54.004-54.082c-1.2578-1.1797-2.3633-2.4414-3.543-3.6211l-49.988 49.91 10.234 18.895v-0.003906c2.0508 3.6094 2.0508 8.0352 0 11.648-4.8008 8.4219-16.609 4.9609-25.664 5.668-7.4219 11.961-11.324 25.773-11.254 39.852 0.070313 14.074 4.1055 27.848 11.648 39.734 12.309 19.086 16.395 42.332 11.336 64.473l-10.078 45.184h0.003907c-0.46094 2.7852-2.8477 4.8438-5.668 4.8828zm144.92-202.23h15.035l-7.8711-15.273-14.328 0.003907-7.8711 15.273h15.742zm-289.53 0h15.113l-8.2656-15.27h-13.934l-8.2656 15.273h15.742zm136.03-23.066-10.707 19.758h38.496l-10.551-19.754zm145.24-4.0156h15.742l55.578-55.105c28.34-28.418 25.82-56.758 11.492-70.848s-42.586-16.688-70.848 11.652v0.003906c-1.1328 1.1094-2.6602 1.7344-4.25 1.7305-2.0273-0.050781-3.918-1.0391-5.1172-2.6758-8.0625-8.1758-17.812-14.492-28.574-18.5 4.5664 24.324-9.8398 54.004-33.219 75.098l3.543 3.6992zm-289.53 0h16.137l55.578-55.105v0.003906c1.2148-1.1719 2.3711-2.4062 3.4609-3.6992-23.617-21.098-37.707-50.773-33.219-75.098-11.262 4.1016-21.418 10.758-29.68 19.441-1.1055 1.1094-2.6055 1.7305-4.1719 1.7344-2.0508-0.050781-3.9648-1.0352-5.1953-2.6758-25.977-27.395-68.488-30.465-79.191 5.9844-4.5664 16.766 4.6445 38.652 20.941 54.316zm143.19-7.8711h19.363l64.551-64.395c33.219-31.488 37.156-82.105-7.0078-94.465-19.996-4.5664-42.902 4.4102-62.977 24.562l0.003906 0.003906c-1.1641 1.0391-2.6914 1.5781-4.25 1.4961-2.0234-0.074219-3.9062-1.0586-5.1172-2.6797-20.387-19.758-42.902-28.34-62.977-23.617-43.059 13.383-39.359 62.977-5.8242 94.465z"/>
</svg>